# xmcd
#
# Track frame offsets:
#	150
#	13284
#	25911
#	37843
#	51245
#	65607
#	78707
#	91911
#	104856
#	118595
#	131647
#	141302
#	152899
#	167076
#	180748
#	195270
#	207994
#	223084
#	237986
#	250703
#	263774
#	277742
#	290044
#	304353
#
# Disc length: 4229 seconds
#
# Revision: 0
# Processed by: cddbd v1.5.1PL0 Copyright (c) Steve Scherf et al.
# Submitted via: audiograbber 1.83.01
#
DISCID=6a108318
DTITLE=Various Artist - Black And White Hillbilly Music
DYEAR=1996
DGENRE=Country
TTITLE0=Woddie Brothers - Chased Old Satan Through The Door
TTITLE1=Woddie Brothers - Likes Likker Better Than Me
TTITLE2=Jackson Country Barn Owls - Bake That Chicken Pie
TTITLE3=Jackson County Barn Owls - I Wonder How The Old Folks Are At Home
TTITLE4=Floyd Country Rambler's - Aunt Dinah's Quilting Party
TTITLE5=Nelstone's Hawaiians - Just Because
TTITLE6=Nellstone Hawaiians - Mobile County Blues
TTITLE7=Dave And Howard - My Bones Gonna Rise Again
TTITLE8=Dave And Howard - Serves 'Em Fine (Cotton MIll Colic No. 3)
TTITLE9=Unknown Harmonica Duet - Cackling Hen Blues
TTITLE10=Riverside Ramblers - Drifting Along
TTITLE11=Riverside Ramblers - Dissatisfied
TTITLE12=Louisiana Rounders - Wishing
TTITLE13=Joe Werner And The Ramblers - Running Around
TTITLE14=Joe's Acadians - Ammend La Nouville A Mamere
TTITLE15=The Renfro Valley Boys mit Karl and Harty - Who's Gonna Shoe Your Pretty
TTITLE15=Little Feet
TTITLE16=Lonie Glossom - Lonnies Fox Chase
TTITLE17=The Yellow Jackets - Huskin' Bee
TTITLE18=George Wade and Francum Braswell - Think A Little
TTITLE19=The Pickard Family (The Pleasant Family) - Get Away From That Window
TTITLE20=Dr. Humphrey Bate And His Possum Hunters - How Many Biscuits Can You E
TTITLE20=at
TTITLE21=Dr. Humphrey Bate And His Possum Hunters - Ham Beats All Meat
TTITLE22=DeFord Bailey - John Henry
TTITLE23=Vrook Brother's String Band - My Wife Died Friday Night
EXTD=
EXTT0=
EXTT1=
EXTT2=
EXTT3=
EXTT4=
EXTT5=
EXTT6=
EXTT7=
EXTT8=
EXTT9=
EXTT10=
EXTT11=
EXTT12=
EXTT13=
EXTT14=
EXTT15=
EXTT16=
EXTT17=
EXTT18=
EXTT19=
EXTT20=
EXTT21=
EXTT22=
EXTT23=
PLAYORDER=
